<svg xmlns="http://www.w3.org/2000/svg" viewBox="0 0 1895.06 1063.16"><defs><style>.cls-1{fill:#f2f2f2;}.cls-2{fill:#3f3d56;}.cls-3{fill:#6c63ff;}.cls-4{fill:#fff;}.cls-5{fill:#ff6584;}.cls-6{fill:#e6e6e6;}.cls-7{fill:#a8a8a8;}.cls-8{fill:#2f2e41;}.cls-9{fill:#a0616a;}.cls-10{fill:#ccc;}</style></defs><g id="Layer_2" data-name="Layer 2"><g id="Layer_1-2" data-name="Layer 1"><path class="cls-1" d="M169.77,884.45c0-38.92,31.58-131.28,70.52-131.28s70.53,92.36,70.53,131.28a70.53,70.53,0,0,1-141,0Z"/><path class="cls-2" d="M240.29,1055.91a.58.58,0,0,1-.58-.58h0v-243a.58.58,0,1,1,1.16,0v243a.58.58,0,0,1-.58.58Z"/><path class="cls-2" d="M240.29,859.26a.58.58,0,0,1-.41-.17L212,831.2a.58.58,0,0,1,.82-.82l27.91,27.9a.56.56,0,0,1,0,.81A.55.55,0,0,1,240.29,859.26Z"/><path class="cls-2" d="M240.29,907.55a.58.58,0,0,1-.58-.58.63.63,0,0,1,.17-.41l46.75-46.71a.58.58,0,0,1,.82.82L240.7,907.38A.55.55,0,0,1,240.29,907.55Z"/><path class="cls-3" d="M235.53,862.61c0,88.69-52.73,119.66-117.77,119.66S0,951.3,0,862.61,117.76,661.1,117.76,661.1,235.53,773.92,235.53,862.61Z"/><polygon class="cls-2" points="113.47 968.71 114.68 894.48 164.88 802.65 114.87 882.84 115.41 849.46 150.01 783.02 115.56 840.63 115.56 840.63 116.53 780.6 153.57 727.71 116.68 771.16 117.29 661.1 113.46 806.8 113.78 800.79 76.12 743.14 113.17 812.33 109.67 879.37 109.56 877.59 66.14 816.92 109.43 883.88 108.99 892.26 108.91 892.39 108.95 893.08 100.05 1063.16 111.94 1063.16 113.37 975.31 156.55 908.52 113.47 968.71"/><path class="cls-3" d="M1688.32,268.89a10.71,10.71,0,0,1-3.14-.47l-218.7-66.75a10.79,10.79,0,0,1-7.17-13.45L1514.43,7.63A10.78,10.78,0,0,1,1527.88.47l218.7,66.75a10.79,10.79,0,0,1,7.17,13.45l-55.12,180.59A10.79,10.79,0,0,1,1688.32,268.89Z"/><path class="cls-2" d="M1720.88,240H1492.23a11.12,11.12,0,0,1-11.11-11.11V40a11.11,11.11,0,0,1,11.11-11.1h228.65A11.11,11.11,0,0,1,1732,40V228.84A11.12,11.12,0,0,1,1720.88,240ZM1492.23,30.23a9.81,9.81,0,0,0-9.8,9.8V228.84a9.8,9.8,0,0,0,9.8,9.8h228.65a9.8,9.8,0,0,0,9.8-9.8V40a9.81,9.81,0,0,0-9.8-9.8Z"/><path class="cls-4" d="M1606.56,217.74a.66.66,0,0,1-.66-.66V89.69a.66.66,0,1,1,1.31,0V217.08A.66.66,0,0,1,1606.56,217.74Z"/><path class="cls-4" d="M1606.56,187.23a.65.65,0,0,1-.29-1.24l69.25-33.52a.65.65,0,0,1,.87.3.64.64,0,0,1-.3.87h0l-69.25,33.51A.58.58,0,0,1,1606.56,187.23Z"/><path class="cls-4" d="M1606.56,153.71a.65.65,0,0,1-.66-.65.66.66,0,0,1,.35-.58l46.38-24.82a.66.66,0,0,1,.89.27.67.67,0,0,1-.27.88l-46.39,24.82A.64.64,0,0,1,1606.56,153.71Z"/><path class="cls-4" d="M1606.56,116.49a.65.65,0,0,1-.66-.66.66.66,0,0,1,.34-.57l27.44-15a.66.66,0,0,1,.89.26.67.67,0,0,1-.26.89h0l-27.44,15A.68.68,0,0,1,1606.56,116.49Z"/><path class="cls-4" d="M1606.55,187.23a.58.58,0,0,1-.28-.07L1537,153.65a.66.66,0,0,1,.57-1.18L1606.84,186a.65.65,0,0,1,.3.87A.64.64,0,0,1,1606.55,187.23Z"/><path class="cls-4" d="M1606.55,153.71a.64.64,0,0,1-.3-.08l-46.39-24.82a.65.65,0,0,1,.62-1.15l46.38,24.82a.66.66,0,0,1,.27.89A.65.65,0,0,1,1606.55,153.71Z"/><path class="cls-4" d="M1606.55,116.49a.68.68,0,0,1-.31-.08l-27.44-15a.67.67,0,0,1-.26-.89.66.66,0,0,1,.89-.26l27.44,15a.66.66,0,0,1,.26.89.67.67,0,0,1-.58.34Z"/><path class="cls-2" d="M1617.66,239.62h-22.21a4.25,4.25,0,0,1-4.25-4.25V221a4.24,4.24,0,0,1,4.25-4.24h22.21a4.24,4.24,0,0,1,4.25,4.24v14.37A4.25,4.25,0,0,1,1617.66,239.62Z"/><circle class="cls-5" cx="1482.09" cy="67.85" r="9.56"/><path class="cls-2" d="M1741.16,32.8c0,.37,0,.73,0,1.09a14.87,14.87,0,1,1-28-8,13.13,13.13,0,0,1,1.09-1.75,14.86,14.86,0,0,1,26.87,7.48C1741.14,32,1741.16,32.4,1741.16,32.8Z"/><circle class="cls-6" cx="1686.09" cy="239.03" r="9.56"/><circle class="cls-6" cx="1612.92" cy="29.31" r="9.56"/><path class="cls-3" d="M224.92,761.41c0-67.17,54.44-226.55,121.61-226.55S468.14,694.24,468.14,761.41a121.61,121.61,0,0,1-243.22,0Z"/><path class="cls-2" d="M346.53,1057.28a1,1,0,0,1-1-1V637a1,1,0,0,1,2,0v419.29A1,1,0,0,1,346.53,1057.28Z"/><path class="cls-2" d="M346.53,717.94a1,1,0,0,1-.71-.29l-48.13-48.14a1,1,0,0,1,1.41-1.41l48.14,48.13a1,1,0,0,1,0,1.42,1.05,1.05,0,0,1-.71.29Z"/><path class="cls-2" d="M346.53,801.27a1,1,0,0,1-1-1,1,1,0,0,1,.29-.71L426.43,719a1,1,0,1,1,1.43,1.41h0L347.24,801A1.05,1.05,0,0,1,346.53,801.27Z"/><path class="cls-2" d="M254.35,1021.44c0,17.18,10.78,31.08,24.1,31.08"/><path class="cls-3" d="M278.45,1052.52c0-17.37,12-31.42,26.89-31.42"/><path class="cls-3" d="M263.08,1023c0,16.32,6.88,29.52,15.37,29.52"/><path class="cls-2" d="M278.45,1052.52c0-22.19,13.9-40.16,31.08-40.16"/><path class="cls-7" d="M273.38,1052.74s3.42-.1,4.45-.83,5.25-1.61,5.51-.44,5.13,5.85,1.28,5.88-9-.6-10-1.22S273.38,1052.74,273.38,1052.74Z"/><path class="cls-2" d="M1892.44,979a2.62,2.62,0,0,0,0-5.24h-24.87V963.27h24.86a2.62,2.62,0,0,0,0-5.24h-212a2.62,2.62,0,0,0,0,5.24h24.86v10.46h-24.86a2.62,2.62,0,0,0,0,5.24h24.86v10.46h-24.86a2.62,2.62,0,0,0,0,5.24h24.86v10.46h-22.24a5.24,5.24,0,0,0,0,10.47h21.17a4.16,4.16,0,0,0-.24,1.31v36.63a3.93,3.93,0,0,0,7.85,0v-36.63a3.66,3.66,0,0,0-.24-1.31h149.63a3.66,3.66,0,0,0-.24,1.31v36.63a3.93,3.93,0,0,0,7.85,0v-36.63a4.16,4.16,0,0,0-.24-1.31h21.17a5.24,5.24,0,0,0,0-10.47h-22.25V994.67h24.86a2.62,2.62,0,0,0,0-5.24h-24.86V979Zm-181.86-15.7h151.77v10.46H1710.58Zm151.77,41.86H1710.58V994.67h151.77Zm0-15.7H1710.58V979h151.77Z"/><circle class="cls-8" cx="1797.14" cy="930.54" r="14.22"/><polygon class="cls-9" points="1761.74 1052.24 1755.52 1052.24 1752.55 1028.22 1761.75 1028.22 1761.74 1052.24"/><polygon class="cls-9" points="1752.02 1048.77 1746.08 1046.9 1750.45 1023.09 1759.22 1025.85 1752.02 1048.77"/><path class="cls-8" d="M1742.37,1043.87l11.46,3.6h0l-2.26,7.21h0l-18.68-5.86h0a7.56,7.56,0,0,1,9.48-5Z"/><path class="cls-8" d="M1754.05,1039.18a2.45,2.45,0,0,1-.8-.14l-4.58-1.72a2.29,2.29,0,0,1-1.43-2.63c1.15-5.19,5.08-22.85,7.24-32.32,2.55-11.24,39.8-13.32,41.38-13.41h.13l4.19,5.26c1.51,4.87,1,8.66-1.43,11.28-7.18,7.65-28.61,2.9-31.17,2.3l-11.39,29.91A2.28,2.28,0,0,1,1754.05,1039.18Z"/><path class="cls-8" d="M1760.65,1042.74a2.22,2.22,0,0,1-.8-.15l-4.58-1.72a2.29,2.29,0,0,1-1.43-2.63c1.16-5.19,5.09-22.84,7.24-32.32,2.55-11.23,39.8-13.32,41.38-13.4h.13l4.19,5.27c1.52,4.86,1,8.66-1.42,11.28-7.18,7.64-28.62,2.9-31.17,2.3l-11.4,29.91A2.3,2.3,0,0,1,1760.65,1042.74Z"/><path class="cls-9" d="M1747.4,969.58a4.73,4.73,0,0,1,.45.71l25.05,2.64,3.61-4.95,8.17,4.47-7.08,12-30.73-7.84a5.33,5.33,0,1,1,.1-7.54c.15.16.29.33.43.51Z"/><path class="cls-10" d="M1805.62,999.79a2.34,2.34,0,0,1-1-.25c-5-2.55-14.77-7-23.81-7.88a2.26,2.26,0,0,1-1.57-.89,2.29,2.29,0,0,1-.43-1.79c.82-4.52,2.69-16,2.45-25.25a12.49,12.49,0,0,1,9.44-12.43h0a43.4,43.4,0,0,1,5-1,12.62,12.62,0,0,1,14,14.61c-1.62,9.56-3.24,22.91-1.83,32.23a2.32,2.32,0,0,1-.92,2.21A2.27,2.27,0,0,1,1805.62,999.79Z"/><path class="cls-10" d="M1781.68,975.48a2.14,2.14,0,0,1-.9-.19l-6.53-2.82a2.29,2.29,0,0,1-1.19-3l5-11.65a5.85,5.85,0,1,1,10.74,4.62v0l-5,11.65A2.28,2.28,0,0,1,1781.68,975.48Z"/><circle class="cls-9" cx="1796.62" cy="933.87" r="12.48"/><path class="cls-8" d="M1783.92,927.74a45.07,45.07,0,0,0,19.47,6.42l-2.05-2.46a15.13,15.13,0,0,0,4.66.92,5.08,5.08,0,0,0,4.16-2,4.75,4.75,0,0,0,.31-4.38,8.94,8.94,0,0,0-2.82-3.54A16.87,16.87,0,0,0,1792,920a10.12,10.12,0,0,0-4.68,3c-1.19,1.46-3.46,2.76-2.86,4.53Z"/><path class="cls-8" d="M1798.72,917.67a38.31,38.31,0,0,0-14-9,19.6,19.6,0,0,0-10.57-1.31c-3.53.71-6.86,3.15-7.84,6.61-.81,2.82,0,5.87,1.27,8.53s2.92,5.13,3.93,7.9a18,18,0,0,1-18.13,24.16c3.46.46,6.65,2.09,10,3s7.38.81,9.9-1.62,2.71-6.74,2.59-10.44l-.58-16.48c-.1-2.8-.18-5.69.83-8.31s3.41-4.9,6.22-4.88c2.12,0,4,1.31,5.71,2.58s3.5,2.62,5.62,2.81,4.53-1.38,4.37-3.5"/><path class="cls-9" d="M1775.65,996.59a5.59,5.59,0,1,1,0-11.18,5.45,5.45,0,0,1,2.14.43h0a5.94,5.94,0,0,1,.67.33L1801.2,976l.63-6.16,9.8-.27-.06,10.27a5.53,5.53,0,0,1-4,5.25L1781,992.63a5.17,5.17,0,0,1-.18.51,5.61,5.61,0,0,1-5.16,3.45Z"/><path class="cls-10" d="M1810.8,974.57a2.33,2.33,0,0,1-.89.25l-7.1.43a2.28,2.28,0,0,1-2.42-2.14l-.78-12.68a5.84,5.84,0,1,1,11.66-.72h0l.78,12.67a2.3,2.3,0,0,1-1.25,2.18Z"/><path class="cls-2" d="M1795.37,997.87h-40.13a1.78,1.78,0,0,1-1.78-1.78h0a1.78,1.78,0,0,1,1.78-1.78h40.13a1.78,1.78,0,0,1,1.78,1.78h0A1.78,1.78,0,0,1,1795.37,997.87Z"/><path class="cls-2" d="M1737.72,994.57v-24.9a3.3,3.3,0,0,1,3.3-3.3h45.21a3.3,3.3,0,0,1,3.3,3.3v24.9a3.3,3.3,0,0,1-3.3,3.3H1741A3.3,3.3,0,0,1,1737.72,994.57Z"/><circle class="cls-4" cx="1763.62" cy="982.12" r="3.05"/></g></g></svg>