<svg xmlns="http://www.w3.org/2000/svg" xmlns:xlink="http://www.w3.org/1999/xlink" viewBox="0 0 573.13 548.61"><defs><style>.cls-1{fill:url(#linear-gradient);}.cls-2{fill:#fff;}.cls-3{fill:none;stroke:#1a171b;stroke-miterlimit:10;}</style><linearGradient id="linear-gradient" x1="288.83" y1="548.61" x2="288.83" gradientUnits="userSpaceOnUse"><stop offset="0" stop-color="#fa9600"/><stop offset="0.11" stop-color="#f99f01"/><stop offset="0.29" stop-color="#f7b704"/><stop offset="0.51" stop-color="#f4df0a"/><stop offset="0.52" stop-color="#f4e10a"/><stop offset="0.62" stop-color="#f6cb07"/><stop offset="0.75" stop-color="#f8b704"/><stop offset="0.88" stop-color="#f9aa03"/><stop offset="1" stop-color="#f9a602"/></linearGradient></defs><title>Star in Svg formate</title><g id="Background"><path class="cls-1" d="M109.47,548.61l67-209.09L0,207.15H220.77L283.18,15.3,288.75,0l5.53,14.71,62.6,192.44H577.65L401.16,339.52l67,209.09L288.83,419.31ZM288.83,412.17,457.3,533.64,394.39,337.37l165.9-124.44H352.68L288.84,16.67l-.19.51L225,212.93H17.36L183.27,337.36,120.35,533.64Z"/><polygon class="cls-2" points="-111.17 -107.85 288.82 -107.85 288.75 0 220.77 207.15 0 207.15 176.5 339.52 109.47 548.61 -111.17 692.15 -111.17 -107.85"/><polygon class="cls-2" points="688.83 -107.85 288.82 -107.85 288.9 0 356.88 207.15 577.65 207.15 401.15 339.52 468.18 548.61 688.83 692.15 688.83 -107.85"/><polygon class="cls-2" points="-111.17 692.15 109.47 548.61 288.82 419.31 468.18 548.61 688.83 692.15 -111.17 692.15"/><rect class="cls-3" width="573.13" height="548.61"/></g></svg>