<svg id="Layer_1" data-name="Layer 1" xmlns="http://www.w3.org/2000/svg" xmlns:xlink="http://www.w3.org/1999/xlink" viewBox="0 0 1472 1395"><defs><style>.cls-1{fill:url(#linear-gradient);}.cls-2{fill:#fff;}.cls-3{fill:none;stroke:#1a171b;stroke-miterlimit:10;stroke-width:7px;}</style><linearGradient id="linear-gradient" x1="736.19" y1="1383.26" x2="736.19" y2="11.99" gradientUnits="userSpaceOnUse"><stop offset="0"/><stop offset="0.87"/><stop offset="1"/></linearGradient></defs><title>Imran Bhai Star black svg formate</title><path class="cls-1" d="M287.89,1383.26,455.42,860.62,14.26,529.76H566.09l156-479.54L736,12l13.83,36.77,156.47,481h551.83L1017,860.63l167.53,522.63L736.19,1060.05Zm448.6-352.82L1142.29,1323,990.75,850.27l399.59-299.7H890.28L736.52,77.86l-.45,1.23L582.71,550.57H82.66L482.25,850.26,330.72,1323Z"/><polygon class="cls-2" points="-263.62 -257.59 736.19 -257.59 735.99 11.99 566.09 529.76 14.26 529.76 455.42 860.62 287.89 1383.26 -263.62 1742.03 -263.62 -257.59"/><polygon class="cls-2" points="1736 -257.59 736.19 -257.59 736.39 11.99 906.29 529.76 1458.12 529.76 1016.96 860.62 1184.48 1383.26 1736 1742.03 1736 -257.59"/><polygon class="cls-2" points="-263.62 1742.03 287.89 1383.26 736.19 1060.05 1184.48 1383.26 1736 1742.03 -263.62 1742.03"/><polygon class="cls-3" points="565.19 529.79 12.26 529.79 454.31 861.32 286.44 1385 735.63 1061.15 1184.84 1385 1016.96 861.32 1459 529.79 906.07 529.79 735.43 10.99 565.19 529.79"/></svg>